<?xml version="1.0" encoding="utf-8"?>
<!-- Generator: Adobe Illustrator 15.0.0, SVG Export Plug-In . SVG Version: 6.00 Build 0)  -->
<!DOCTYPE svg PUBLIC "-//W3C//DTD SVG 1.1//EN" "http://www.w3.org/Graphics/SVG/1.1/DTD/svg11.dtd">
<svg version="1.1" id="Layer_1" xmlns="http://www.w3.org/2000/svg" xmlns:xlink="http://www.w3.org/1999/xlink" x="0px" y="0px"
	 width="211.142px" height="59.917px" viewBox="0 0 211.142 59.917" enable-background="new 0 0 211.142 59.917"
	 xml:space="preserve">
<g>
	<g>
		<g>
			<g>
				<path fill="#FFFFFF" d="M31.334,26.737c0-0.911,0-4.037,0-4.948c-0.91,0-4.04,0-4.95,0c0,0.911,0,4.037,0,4.948"/>
				<path fill="#FFFFFF" d="M31.334,39.197c0-0.911,0-4.04,0-4.95c-0.887,0-3.864,0-4.86,0l-0.001,4.95"/>
				<path fill="#FFFFFF" d="M32.673,26.737c0.909,0,4.034,0,4.947,0V21.79c-0.913,0-4.038,0-4.947,0
					C32.673,22.7,32.673,25.827,32.673,26.737z"/>
				<path fill="#FFFFFF" d="M25.108,28.018c-0.993,0-3.974,0-4.861,0c0,0.911,0,4.037,0,4.948c0.887,0,3.868,0,4.861,0V28.018z"/>
				<path fill="#FFFFFF" d="M32.673,32.966c0.909,0,4.034,0,4.947,0v-4.948c-0.913,0-4.038,0-4.947,0
					C32.673,28.929,32.673,32.055,32.673,32.966z"/>
				<path fill="#FFFFFF" d="M31.334,28.018c-0.887,0-3.868,0-4.862,0v4.948c0.994,0,3.975,0,4.862,0
					C31.334,32.055,31.334,28.929,31.334,28.018z"/>
				<path fill="#FFFFFF" d="M20.248,39.197c0.888,0,3.868,0,4.861,0v-4.95c-0.997,0-3.974,0-4.861,0
					C20.248,35.157,20.248,38.286,20.248,39.197z"/>
				<path fill="#FFFFFF" d="M37.62,39.197v-4.948c-0.913,0-4.036-0.002-4.945-0.002c-0.001,0.911-0.001,4.04-0.001,4.95
					C33.583,39.197,36.708,39.197,37.62,39.197z"/>
				<path fill="#FFFFFF" d="M23.603,23.162c-0.126-0.902-0.562-3.999-0.688-4.9c-0.901,0.127-4,0.561-4.901,0.688
					c0.126,0.902,0.561,3.999,0.688,4.9C19.602,23.723,22.701,23.289,23.603,23.162z"/>
				<path fill="#FFFFFF" d="M18.972,34.242v-1.271v-6.229h6.137v-6.229h6.289h0.574h0.638h5.01V1.585H7.709l1.584,3.559L2.439,8.194
					L0,2.711v36.497h18.972V34.242z M9.092,8.295l6.599-1.893l0.614-0.175l2.063,7.21l-7.208,2.065L9.092,8.295z M23.368,16.91
					l0.631-0.088l1.045,7.427l-7.43,1.042l-1.042-7.427L23.368,16.91z"/>
				<path fill="#FFFFFF" d="M15.429,7.804c-0.875,0.251-3.884,1.115-4.759,1.365c0.251,0.875,1.113,3.881,1.364,4.756
					c0.875-0.25,3.881-1.112,4.756-1.363C16.54,11.687,15.68,8.68,15.429,7.804z"/>
				<path fill="#FFFFFF" d="M5.628,0C4.793,0.363,1.922,1.609,1.086,1.971c0.362,0.834,1.607,3.704,1.97,4.539
					c0.835-0.362,3.704-1.606,4.54-1.968C7.233,3.706,5.991,0.836,5.628,0z"/>
			</g>
		</g>
	</g>
	<g>
		<path fill="#FFFFFF" d="M48.783,30.454c0.345,3.064,2.676,4.92,5.568,4.92c2.59,0,4.273-1.208,5.568-2.805l3.711,2.805
			c-2.417,2.978-5.481,4.144-8.761,4.144c-6.258,0-11.265-4.359-11.265-10.876c0-6.518,5.007-10.876,11.265-10.876
			c5.783,0,9.711,4.057,9.711,11.265v1.424H48.783z M59.4,26.569c-0.043-3.021-2.028-4.92-5.266-4.92
			c-3.064,0-4.963,1.942-5.352,4.92H59.4z"/>
		<path fill="#FFFFFF" d="M84.865,15.002c-1.165-1.64-3.237-2.417-5.352-2.417c-2.503,0-5.007,1.122-5.007,3.927
			c0,6.129,14.502,2.633,14.502,13.509c0,6.561-5.179,9.754-11.179,9.754c-3.798,0-7.51-1.166-10.013-4.144l4.1-3.971
			c1.338,2.029,3.625,3.194,6.042,3.194c2.503,0,5.352-1.381,5.352-4.187c0-6.69-14.502-2.849-14.502-13.768
			c0-6.301,5.611-9.236,11.265-9.236c3.194,0,6.388,0.906,8.761,3.151L84.865,15.002z"/>
		<path fill="#FFFFFF" d="M107.48,24.498c-1.208-1.251-2.546-2.072-3.927-2.072c-3.798,0-6.086,2.978-6.086,6.215
			c0,3.237,2.288,6.215,6.086,6.215c1.597,0,3.064-0.69,4.014-1.942l3.453,3.711c-2.115,2.115-5.654,2.892-7.467,2.892
			c-6.258,0-11.265-4.359-11.265-10.876c0-6.518,5.007-10.876,11.265-10.876c2.633,0,5.524,0.949,7.51,3.151L107.48,24.498z"/>
		<path fill="#FFFFFF" d="M119.306,21.174h0.086c0.82-1.727,2.892-3.41,6.085-3.41c5.568,0,7.553,3.928,7.553,8.157V39h-5.179
			V28.512c0-2.288-0.173-6.086-3.798-6.086c-3.41,0-4.748,2.503-4.748,5.266V39h-5.179V6.37h5.179V21.174z"/>
		<path fill="#FFFFFF" d="M148.267,17.765c6.258,0,11.265,4.359,11.265,10.876c0,6.517-5.006,10.876-11.265,10.876
			s-11.265-4.359-11.265-10.876C137.001,22.124,142.008,17.765,148.267,17.765z M148.267,34.856c3.798,0,6.085-2.978,6.085-6.215
			c0-3.237-2.288-6.215-6.085-6.215c-3.798,0-6.086,2.978-6.086,6.215C142.181,31.878,144.468,34.856,148.267,34.856z"/>
		<path fill="#FFFFFF" d="M163.588,6.37h5.18V39h-5.18V6.37z"/>
		<path fill="#FFFFFF" d="M187.239,36.151h-0.129c-1.467,2.331-3.884,3.367-6.646,3.367c-3.841,0-7.553-2.115-7.553-6.215
			c0-6.733,7.855-7.208,13.035-7.208h1.294v-0.561c0-2.547-1.985-3.885-4.748-3.885c-2.158,0-4.143,0.863-5.524,2.158l-2.719-2.719
			c2.288-2.331,5.525-3.323,8.805-3.323c8.848,0,8.848,6.388,8.848,9.323V39h-4.662V36.151z M186.938,29.72h-1.079
			c-2.849,0-7.769,0.216-7.769,3.194c0,1.899,1.942,2.719,3.625,2.719c3.539,0,5.223-1.856,5.223-4.748V29.72z"/>
		<path fill="#FFFFFF" d="M197.209,18.283h5.179v3.28h0.086c1.122-2.374,3.41-3.798,6.129-3.798c0.647,0,1.252,0.129,1.856,0.302
			v5.006c-0.863-0.216-1.684-0.388-2.504-0.388c-4.877,0-5.567,4.1-5.567,5.222V39h-5.179V18.283z"/>
	</g>
	<text transform="matrix(1 0 0 1 204.2354 38.9229)" fill="#FFFFFF" font-family="'Avenir-Medium'" font-size="8">®</text>
	
</g>
</svg>
